<svg xmlns="http://www.w3.org/2000/svg" x="0px" y="0px"
width="30" height="30"
viewBox="0 0 24 24"
style=" fill:brown;"><path d="M19.1,4.9C17,2.8,14.2,1.8,11.2,2c-4,0.3-7.5,3.1-8.7,7c-0.8,2.7-0.5,5.6,0.9,8l-1.3,4.3c-0.1,0.4,0.3,0.8,0.7,0.7l4.5-1.2	C8.7,21.6,10.3,22,12,22h0c4.2,0,8.1-2.6,9.4-6.5C22.7,11.6,21.8,7.6,19.1,4.9z M16.9,15.6c-0.2,0.6-1.2,1.1-1.7,1.2	c-0.5,0-0.9,0.2-3-0.6c-2.5-1-4.1-3.6-4.3-3.8c-0.1-0.2-1-1.4-1-2.6c0-1.2,0.6-1.8,0.9-2.1C8,7.4,8.3,7.4,8.5,7.4c0.2,0,0.3,0,0.5,0	c0.2,0,0.4,0,0.6,0.4c0.2,0.5,0.7,1.7,0.8,1.9c0.1,0.1,0.1,0.3,0,0.4c-0.1,0.2-0.1,0.3-0.2,0.4c-0.1,0.1-0.3,0.3-0.4,0.4	c-0.1,0.1-0.3,0.3-0.1,0.5c0.1,0.3,0.6,1.1,1.4,1.7c1,0.8,1.8,1.1,2,1.2c0.3,0.1,0.4,0.1,0.5-0.1c0.1-0.2,0.6-0.7,0.8-1	s0.3-0.2,0.6-0.1s1.5,0.7,1.7,0.8c0.3,0.1,0.4,0.2,0.5,0.3C17.1,14.5,17.1,15,16.9,15.6z"></path></svg>